<svg viewBox="0 0 64 64" fill="none" xmlns="http://www.w3.org/2000/svg">
<g>
<path d="M39.0967 33.2393L44.9908 33.2393C46.4912 33.2393 47.0415 33.5233 47.5944 32.6383L58.7648 16.4988C58.892 16.2953 58.9701 16.0649 58.9928 15.8259L58.4782 8.62929C58.516 8.23111 58.0831 7.96041 57.7417 8.16898L51.0397 10.8652C50.8368 10.9893 50.6656 11.1587 50.5396 11.3605L38.4955 30.6352C37.9424 31.5203 38.2116 32.6863 39.0967 33.2393Z" fill="#007bc7"/>
<path d="M20.855 30.97C28.045 30.97 34.516 25.098 38.71 19.107C34.037 14.194 27.686 10 20.855 10C14.024 10 7.674 14.073 3 19.106C7.194 25.098 13.665 30.97 20.855 30.97ZM16.421 14.433C15.343 15.511 14.744 17.069 14.744 18.627C14.744 21.982 17.5 24.738 20.855 24.738C24.21 24.738 26.966 21.982 26.966 18.627C26.966 16.949 26.247 15.511 25.289 14.433C29.244 15.631 32.479 18.148 34.037 19.586C32 21.983 26.727 27.495 20.855 27.495C14.983 27.495 9.711 21.982 7.674 19.586C9.231 18.147 12.467 15.631 16.421 14.433Z" fill="#0f172a"/>
<path d="M7 59.0001H55V36.0001H7V59.0001Z" fill="#007bc7"/>
</g>
<defs>
</defs>
</svg>
