<?xml version="1.0" encoding="UTF-8"?>
<!-- Do not edit this file with editors other than draw.io -->
<!DOCTYPE svg PUBLIC "-//W3C//DTD SVG 1.1//EN" "http://www.w3.org/Graphics/SVG/1.1/DTD/svg11.dtd">
<svg xmlns="http://www.w3.org/2000/svg" style="background: #ffffff; background-color: light-dark(#ffffff, var(--ge-dark-color, #121212)); color-scheme: light dark;" xmlns:xlink="http://www.w3.org/1999/xlink" version="1.1" width="295px" height="504px" viewBox="0 0 295 504" content="&lt;mxfile host=&quot;confluence.rijksweb.nl&quot; agent=&quot;Mozilla/5.0 (Windows NT 10.0; Win64; x64) AppleWebKit/537.36 (KHTML, like Gecko) Chrome/143.0.0.0 Safari/537.36 Edg/143.0.0.0&quot; version=&quot;29.3.8&quot; scale=&quot;1&quot; border=&quot;0&quot;&gt;&#10;  &lt;diagram id=&quot;C3aTyI0tkM2imsJNCPqk&quot; name=&quot;Pagina-1&quot;&gt;&#10;    &lt;mxGraphModel dx=&quot;1418&quot; dy=&quot;790&quot; grid=&quot;1&quot; gridSize=&quot;10&quot; guides=&quot;1&quot; tooltips=&quot;1&quot; connect=&quot;1&quot; arrows=&quot;1&quot; fold=&quot;1&quot; page=&quot;0&quot; pageScale=&quot;1&quot; pageWidth=&quot;827&quot; pageHeight=&quot;1169&quot; math=&quot;0&quot; shadow=&quot;0&quot;&gt;&#10;      &lt;root&gt;&#10;        &lt;mxCell id=&quot;0&quot; /&gt;&#10;        &lt;mxCell id=&quot;1&quot; parent=&quot;0&quot; /&gt;&#10;        &lt;mxCell id=&quot;Dh1xF50VbYc3bS5iLeoW-1&quot; parent=&quot;1&quot; style=&quot;shape=image;verticalLabelPosition=bottom;labelBackgroundColor=default;verticalAlign=top;aspect=fixed;imageAspect=0;editableCssRules=.*;image=data:image/svg+xml,PHN2ZyB4bWxucz0iaHR0cDovL3d3dy53My5vcmcvMjAwMC9zdmciIHhtbG5zOnhsaW5rPSJodHRwOi8vd3d3LnczLm9yZy8xOTk5L3hsaW5rIiBpZD0iTGFhZ18xIiB2aWV3Qm94PSI5LjAxMDAwMjEzNjIzMDQ2OSA1LjIwMDAwMDc2MjkzOTQ1MyA0NS45OTk5OTYxODUzMDI3MzQgNDkuNzk5OTk5MjM3MDYwNTUiIHdpZHRoPSI0NS45OTk5OTYxODUzMDI3MzQiIGhlaWdodD0iNDkuNzk5OTk5MjM3MDYwNTUiPjxkZWZzPjxzdHlsZT4uY2xzLTF7ZmlsbDpub25lO30uY2xzLTJ7Y2xpcC1wYXRoOnVybCgjY2xpcHBhdGgpO30uY2xzLTN7ZmlsbDojMTU0MjczO30uY2xzLTR7Y2xpcC1wYXRoOnVybCgjY2xpcHBhdGgtMSk7fTwvc3R5bGU+PGNsaXBQYXRoIGlkPSJjbGlwcGF0aCI+PHJlY3QgY2xhc3M9ImNscy0xIiB3aWR0aD0iNjQiIGhlaWdodD0iNjQiLz48L2NsaXBQYXRoPjxjbGlwUGF0aCBpZD0iY2xpcHBhdGgtMSI+PHJlY3QgY2xhc3M9ImNscy0xIiB3aWR0aD0iNjQiIGhlaWdodD0iNjQiLz48L2NsaXBQYXRoPjwvZGVmcz48ZyBjbGFzcz0iY2xzLTIiPjxnIGNsYXNzPSJjbHMtNCI+PHBhdGggY2xhc3M9ImNscy0zIiBkPSJNMzEuNSwzMS43OWM3LjcsMCwxMi4xNS01LjM2LDEyLjE1LTEzLjA4LDAtOC44LTQuNjYtMTMuNTEtMTIuMTUtMTMuNTEtNy45LDAtMTIuMTYsNS41OC0xMi4xNiwxMy41MSwwLDguMzcsNC40NiwxMy4wOCwxMi4xNiwxMy4wOCIvPjxwYXRoIGNsYXNzPSJjbHMtMyIgZD0iTTQ5LjE1LDM5LjNjLTMuMTgtMi4yMi04LjU1LTMuMy0xNy4xNC0zLjNzLTEzLjk2LDEuMDgtMTcuMTQsMy4zYy0zLjk5LDIuNzgtNS4xNiw4LjY3LTUuODYsMTUuN0g1NS4wMWMtLjctNy4wMy0xLjg4LTEyLjkyLTUuODYtMTUuNyIvPjwvZz48L2c+PC9zdmc+;&quot; value=&quot;&quot; vertex=&quot;1&quot;&gt;&#10;          &lt;mxGeometry height=&quot;90&quot; width=&quot;82.8&quot; x=&quot;60&quot; y=&quot;308&quot; as=&quot;geometry&quot; /&gt;&#10;        &lt;/mxCell&gt;&#10;        &lt;mxCell id=&quot;Dh1xF50VbYc3bS5iLeoW-2&quot; parent=&quot;1&quot; style=&quot;shape=image;verticalLabelPosition=bottom;labelBackgroundColor=default;verticalAlign=top;aspect=fixed;imageAspect=0;editableCssRules=.*;image=data:image/svg+xml,PHN2ZyB4bWxucz0iaHR0cDovL3d3dy53My5vcmcvMjAwMC9zdmciIHhtbG5zOnhsaW5rPSJodHRwOi8vd3d3LnczLm9yZy8xOTk5L3hsaW5rIiBpZD0iTGFhZ18xIiB2aWV3Qm94PSI3IDMgNTAgNTgiIHdpZHRoPSI1MCIgaGVpZ2h0PSI1OCI+PGRlZnM+PHN0eWxlPi5jbHMtMXtmaWxsOm5vbmU7fS5jbHMtMntjbGlwLXBhdGg6dXJsKCNjbGlwcGF0aCk7fS5jbHMtM3tmaWxsOiMxNTQyNzM7fS5jbHMtNHtjbGlwLXBhdGg6dXJsKCNjbGlwcGF0aC0xKTt9PC9zdHlsZT48Y2xpcFBhdGggaWQ9ImNsaXBwYXRoIj48cmVjdCBjbGFzcz0iY2xzLTEiIHdpZHRoPSI2NCIgaGVpZ2h0PSI2NCIvPjwvY2xpcFBhdGg+PGNsaXBQYXRoIGlkPSJjbGlwcGF0aC0xIj48cmVjdCBjbGFzcz0iY2xzLTEiIHdpZHRoPSI2NCIgaGVpZ2h0PSI2NCIvPjwvY2xpcFBhdGg+PC9kZWZzPjxnIGNsYXNzPSJjbHMtMiI+PGcgY2xhc3M9ImNscy00Ij48cGF0aCBjbGFzcz0iY2xzLTMiIGQ9Ik00MCwzLjVjMC0uMjgtLjIyLS41LS41LS41SDE0LjVjLS4yOCwwLS41LC4yMi0uNSwuNVYzMUg3LjVjLS4yOCwwLS41LC4yMi0uNSwuNXYyOS41SDI3VjE5YzAtLjU1LC40NS0xLDEtMWgxMlYzLjVaIi8+PHBhdGggY2xhc3M9ImNscy0zIiBkPSJNNTYuNSwyMEgyOS41Yy0uMjgsMC0uNSwuMjItLjUsLjVWNjFoMTJ2LTZoNHY2aDEyVjIwLjVjMC0uMjgtLjIyLS41LS41LS41bS0xOC41LDMxaC00di00aDR2NFptMC03aC00di00aDR2NFptMC03aC00di00aDR2NFptMC03aC00di00aDR2NFptNywyMWgtNHYtNGg0djRabTAtN2gtNHYtNGg0djRabTAtN2gtNHYtNGg0djRabTAtN2gtNHYtNGg0djRabTcsMjFoLTR2LTRoNHY0Wm0wLTdoLTR2LTRoNHY0Wm0wLTdoLTR2LTRoNHY0Wm0wLTdoLTR2LTRoNHY0WiIvPjwvZz48L2c+PC9zdmc+;&quot; value=&quot;&quot; vertex=&quot;1&quot;&gt;&#10;          &lt;mxGeometry height=&quot;86&quot; width=&quot;74.14&quot; x=&quot;280&quot; y=&quot;310&quot; as=&quot;geometry&quot; /&gt;&#10;        &lt;/mxCell&gt;&#10;        &lt;mxCell id=&quot;Dh1xF50VbYc3bS5iLeoW-3&quot; parent=&quot;1&quot; style=&quot;shape=image;verticalLabelPosition=bottom;labelBackgroundColor=default;verticalAlign=top;aspect=fixed;imageAspect=0;editableCssRules=.*;image=data:image/svg+xml,PHN2ZyB4bWxucz0iaHR0cDovL3d3dy53My5vcmcvMjAwMC9zdmciIHhtbG5zOnhsaW5rPSJodHRwOi8vd3d3LnczLm9yZy8xOTk5L3hsaW5rIiBpZD0iTGFhZ18xIiB2aWV3Qm94PSI3IDMgNTAgNTgiIHdpZHRoPSI1MCIgaGVpZ2h0PSI1OCIgc3R5bGU9ImNvbG9yLXNjaGVtZTogbGlnaHQgZGFyazsiPjxkZWZzPjxzdHlsZT4uY2xzLTEgeyBmaWxsOiBub25lOyB9IC5jbHMtMiB7IGNsaXAtcGF0aDogdXJsKCIjY2xpcHBhdGgiKTsgfSAuY2xzLTMgeyBmaWxsOiByZ2IoMjEsIDY2LCAxMTUpOyB9IC5jbHMtNCB7IGNsaXAtcGF0aDogdXJsKCIjY2xpcHBhdGgtMSIpOyB9IDwvc3R5bGU+PGNsaXBQYXRoIGlkPSJjbGlwcGF0aCI+PHJlY3QgY2xhc3M9ImNscy0xIiB3aWR0aD0iNjQiIGhlaWdodD0iNjQiLz48L2NsaXBQYXRoPjxjbGlwUGF0aCBpZD0iY2xpcHBhdGgtMSI+PHJlY3QgY2xhc3M9ImNscy0xIiB3aWR0aD0iNjQiIGhlaWdodD0iNjQiLz48L2NsaXBQYXRoPjwvZGVmcz48ZyBjbGFzcz0iY2xzLTIiPjxnIGNsYXNzPSJjbHMtNCI+PHBhdGggY2xhc3M9ImNscy0zIiBkPSJNNDAsMy41YzAtLjI4LS4yMi0uNS0uNS0uNUgxNC41Yy0uMjgsMC0uNSwuMjItLjUsLjVWMzFINy41Yy0uMjgsMC0uNSwuMjItLjUsLjV2MjkuNUgyN1YxOWMwLS41NSwuNDUtMSwxLTFoMTJWMy41WiIvPjxwYXRoIGNsYXNzPSJjbHMtMyIgZD0iTTU2LjUsMjBIMjkuNWMtLjI4LDAtLjUsLjIyLS41LC41VjYxaDEydi02aDR2NmgxMlYyMC41YzAtLjI4LS4yMi0uNS0uNS0uNW0tMTguNSwzMWgtNHYtNGg0djRabTAtN2gtNHYtNGg0djRabTAtN2gtNHYtNGg0djRabTAtN2gtNHYtNGg0djRabTcsMjFoLTR2LTRoNHY0Wm0wLTdoLTR2LTRoNHY0Wm0wLTdoLTR2LTRoNHY0Wm0wLTdoLTR2LTRoNHY0Wm03LDIxaC00di00aDR2NFptMC03aC00di00aDR2NFptMC03aC00di00aDR2NFptMC03aC00di00aDR2NFoiLz48L2c+PC9nPjwvc3ZnPg==;imageBackground=default;&quot; value=&quot;&quot; vertex=&quot;1&quot;&gt;&#10;          &lt;mxGeometry height=&quot;82&quot; width=&quot;70.69&quot; x=&quot;280&quot; y=&quot;178&quot; as=&quot;geometry&quot; /&gt;&#10;        &lt;/mxCell&gt;&#10;        &lt;mxCell id=&quot;Dh1xF50VbYc3bS5iLeoW-4&quot; parent=&quot;1&quot; style=&quot;shape=image;verticalLabelPosition=bottom;labelBackgroundColor=default;verticalAlign=top;aspect=fixed;imageAspect=0;editableCssRules=.*;image=data:image/svg+xml,PHN2ZyB4bWxucz0iaHR0cDovL3d3dy53My5vcmcvMjAwMC9zdmciIHhtbG5zOnhsaW5rPSJodHRwOi8vd3d3LnczLm9yZy8xOTk5L3hsaW5rIiBpZD0iTGFhZ18xIiB2aWV3Qm94PSI3IDMgNTAgNTgiIHdpZHRoPSI1MCIgaGVpZ2h0PSI1OCI+PGRlZnM+PHN0eWxlPi5jbHMtMXtmaWxsOm5vbmU7fS5jbHMtMntjbGlwLXBhdGg6dXJsKCNjbGlwcGF0aCk7fS5jbHMtM3tmaWxsOiMxNTQyNzM7fS5jbHMtNHtjbGlwLXBhdGg6dXJsKCNjbGlwcGF0aC0xKTt9PC9zdHlsZT48Y2xpcFBhdGggaWQ9ImNsaXBwYXRoIj48cmVjdCBjbGFzcz0iY2xzLTEiIHdpZHRoPSI2NCIgaGVpZ2h0PSI2NCIvPjwvY2xpcFBhdGg+PGNsaXBQYXRoIGlkPSJjbGlwcGF0aC0xIj48cmVjdCBjbGFzcz0iY2xzLTEiIHdpZHRoPSI2NCIgaGVpZ2h0PSI2NCIvPjwvY2xpcFBhdGg+PC9kZWZzPjxnIGNsYXNzPSJjbHMtMiI+PGcgY2xhc3M9ImNscy00Ij48cGF0aCBjbGFzcz0iY2xzLTMiIGQ9Ik00MCwzLjVjMC0uMjgtLjIyLS41LS41LS41SDE0LjVjLS4yOCwwLS41LC4yMi0uNSwuNVYzMUg3LjVjLS4yOCwwLS41LC4yMi0uNSwuNXYyOS41SDI3VjE5YzAtLjU1LC40NS0xLDEtMWgxMlYzLjVaIi8+PHBhdGggY2xhc3M9ImNscy0zIiBkPSJNNTYuNSwyMEgyOS41Yy0uMjgsMC0uNSwuMjItLjUsLjVWNjFoMTJ2LTZoNHY2aDEyVjIwLjVjMC0uMjgtLjIyLS41LS41LS41bS0xOC41LDMxaC00di00aDR2NFptMC03aC00di00aDR2NFptMC03aC00di00aDR2NFptMC03aC00di00aDR2NFptNywyMWgtNHYtNGg0djRabTAtN2gtNHYtNGg0djRabTAtN2gtNHYtNGg0djRabTAtN2gtNHYtNGg0djRabTcsMjFoLTR2LTRoNHY0Wm0wLTdoLTR2LTRoNHY0Wm0wLTdoLTR2LTRoNHY0Wm0wLTdoLTR2LTRoNHY0WiIvPjwvZz48L2c+PC9zdmc+;&quot; value=&quot;&quot; vertex=&quot;1&quot;&gt;&#10;          &lt;mxGeometry height=&quot;80&quot; width=&quot;68.96&quot; x=&quot;280&quot; y=&quot;449&quot; as=&quot;geometry&quot; /&gt;&#10;        &lt;/mxCell&gt;&#10;        &lt;mxCell id=&quot;Dh1xF50VbYc3bS5iLeoW-5&quot; parent=&quot;1&quot; style=&quot;shape=image;verticalLabelPosition=bottom;labelBackgroundColor=default;verticalAlign=top;aspect=fixed;imageAspect=0;editableCssRules=.*;image=data:image/svg+xml,PHN2ZyB4bWxucz0iaHR0cDovL3d3dy53My5vcmcvMjAwMC9zdmciIHhtbG5zOnhsaW5rPSJodHRwOi8vd3d3LnczLm9yZy8xOTk5L3hsaW5rIiBpZD0iTGFhZ18xIiB2aWV3Qm94PSI5LjAxMDAwMjEzNjIzMDQ2OSA1LjIwMDAwMDc2MjkzOTQ1MyA0NS45OTk5OTYxODUzMDI3MzQgNDkuNzk5OTk5MjM3MDYwNTUiIHdpZHRoPSI0NS45OTk5OTYxODUzMDI3MzQiIGhlaWdodD0iNDkuNzk5OTk5MjM3MDYwNTUiPjxkZWZzPjxzdHlsZT4uY2xzLTF7ZmlsbDpub25lO30uY2xzLTJ7Y2xpcC1wYXRoOnVybCgjY2xpcHBhdGgpO30uY2xzLTN7ZmlsbDojMTU0MjczO30uY2xzLTR7Y2xpcC1wYXRoOnVybCgjY2xpcHBhdGgtMSk7fTwvc3R5bGU+PGNsaXBQYXRoIGlkPSJjbGlwcGF0aCI+PHJlY3QgY2xhc3M9ImNscy0xIiB3aWR0aD0iNjQiIGhlaWdodD0iNjQiLz48L2NsaXBQYXRoPjxjbGlwUGF0aCBpZD0iY2xpcHBhdGgtMSI+PHJlY3QgY2xhc3M9ImNscy0xIiB3aWR0aD0iNjQiIGhlaWdodD0iNjQiLz48L2NsaXBQYXRoPjwvZGVmcz48ZyBjbGFzcz0iY2xzLTIiPjxnIGNsYXNzPSJjbHMtNCI+PHBhdGggY2xhc3M9ImNscy0zIiBkPSJNMzEuNSwzMS43OWM3LjcsMCwxMi4xNS01LjM2LDEyLjE1LTEzLjA4LDAtOC44LTQuNjYtMTMuNTEtMTIuMTUtMTMuNTEtNy45LDAtMTIuMTYsNS41OC0xMi4xNiwxMy41MSwwLDguMzcsNC40NiwxMy4wOCwxMi4xNiwxMy4wOCIvPjxwYXRoIGNsYXNzPSJjbHMtMyIgZD0iTTQ5LjE1LDM5LjNjLTMuMTgtMi4yMi04LjU1LTMuMy0xNy4xNC0zLjNzLTEzLjk2LDEuMDgtMTcuMTQsMy4zYy0zLjk5LDIuNzgtNS4xNiw4LjY3LTUuODYsMTUuN0g1NS4wMWMtLjctNy4wMy0xLjg4LTEyLjkyLTUuODYtMTUuNyIvPjwvZz48L2c+PC9zdmc+;&quot; value=&quot;&quot; vertex=&quot;1&quot;&gt;&#10;          &lt;mxGeometry height=&quot;90&quot; width=&quot;82.8&quot; x=&quot;60&quot; y=&quot;444&quot; as=&quot;geometry&quot; /&gt;&#10;        &lt;/mxCell&gt;&#10;        &lt;mxCell id=&quot;Dh1xF50VbYc3bS5iLeoW-6&quot; parent=&quot;1&quot; style=&quot;shape=image;verticalLabelPosition=bottom;labelBackgroundColor=default;verticalAlign=top;aspect=fixed;imageAspect=0;editableCssRules=.*;image=data:image/svg+xml,PHN2ZyB4bWxucz0iaHR0cDovL3d3dy53My5vcmcvMjAwMC9zdmciIHhtbG5zOnhsaW5rPSJodHRwOi8vd3d3LnczLm9yZy8xOTk5L3hsaW5rIiBpZD0iTGFhZ18xIiB2aWV3Qm94PSI5LjAxMDAwMjEzNjIzMDQ2OSA1LjIwMDAwMDc2MjkzOTQ1MyA0NS45OTk5OTYxODUzMDI3MzQgNDkuNzk5OTk5MjM3MDYwNTUiIHdpZHRoPSI0NS45OTk5OTYxODUzMDI3MzQiIGhlaWdodD0iNDkuNzk5OTk5MjM3MDYwNTUiIHN0eWxlPSJjb2xvci1zY2hlbWU6IGxpZ2h0IGRhcms7Ij48ZGVmcz48c3R5bGU+LmNscy0xIHsgZmlsbDogbm9uZTsgfSAuY2xzLTIgeyBjbGlwLXBhdGg6IHVybCgiI2NsaXBwYXRoIik7IH0gLmNscy0zIHsgZmlsbDogcmdiKDIxLCA2NiwgMTE1KTsgfSAuY2xzLTQgeyBjbGlwLXBhdGg6IHVybCgiI2NsaXBwYXRoLTEiKTsgfSA8L3N0eWxlPjxjbGlwUGF0aCBpZD0iY2xpcHBhdGgiPjxyZWN0IGNsYXNzPSJjbHMtMSIgd2lkdGg9IjY0IiBoZWlnaHQ9IjY0Ii8+PC9jbGlwUGF0aD48Y2xpcFBhdGggaWQ9ImNsaXBwYXRoLTEiPjxyZWN0IGNsYXNzPSJjbHMtMSIgd2lkdGg9IjY0IiBoZWlnaHQ9IjY0Ii8+PC9jbGlwUGF0aD48L2RlZnM+PGcgY2xhc3M9ImNscy0yIj48ZyBjbGFzcz0iY2xzLTQiPjxwYXRoIGNsYXNzPSJjbHMtMyIgZD0iTTMxLjUsMzEuNzljNy43LDAsMTIuMTUtNS4zNiwxMi4xNS0xMy4wOCwwLTguOC00LjY2LTEzLjUxLTEyLjE1LTEzLjUxLTcuOSwwLTEyLjE2LDUuNTgtMTIuMTYsMTMuNTEsMCw4LjM3LDQuNDYsMTMuMDgsMTIuMTYsMTMuMDgiLz48cGF0aCBjbGFzcz0iY2xzLTMiIGQ9Ik00OS4xNSwzOS4zYy0zLjE4LTIuMjItOC41NS0zLjMtMTcuMTQtMy4zcy0xMy45NiwxLjA4LTE3LjE0LDMuM2MtMy45OSwyLjc4LTUuMTYsOC42Ny01Ljg2LDE1LjdINTUuMDFjLS43LTcuMDMtMS44OC0xMi45Mi01Ljg2LTE1LjciLz48L2c+PC9nPjwvc3ZnPg==;imageBackground=default;&quot; value=&quot;&quot; vertex=&quot;1&quot;&gt;&#10;          &lt;mxGeometry height=&quot;90&quot; width=&quot;82.8&quot; x=&quot;60&quot; y=&quot;30&quot; as=&quot;geometry&quot; /&gt;&#10;        &lt;/mxCell&gt;&#10;        &lt;mxCell id=&quot;Dh1xF50VbYc3bS5iLeoW-9&quot; edge=&quot;1&quot; parent=&quot;1&quot; source=&quot;Dh1xF50VbYc3bS5iLeoW-1&quot; style=&quot;endArrow=classic;startArrow=classic;html=1;rounded=0;exitX=1;exitY=0.5;exitDx=0;exitDy=0;entryX=0;entryY=0.5;entryDx=0;entryDy=0;fillColor=#dae8fc;strokeColor=#6c8ebf;strokeWidth=3;&quot; target=&quot;Dh1xF50VbYc3bS5iLeoW-2&quot; value=&quot;&quot;&gt;&#10;          &lt;mxGeometry height=&quot;50&quot; relative=&quot;1&quot; width=&quot;50&quot; as=&quot;geometry&quot;&gt;&#10;            &lt;mxPoint x=&quot;180&quot; y=&quot;230&quot; as=&quot;sourcePoint&quot; /&gt;&#10;            &lt;mxPoint x=&quot;230&quot; y=&quot;180&quot; as=&quot;targetPoint&quot; /&gt;&#10;          &lt;/mxGeometry&gt;&#10;        &lt;/mxCell&gt;&#10;        &lt;mxCell id=&quot;Dh1xF50VbYc3bS5iLeoW-11&quot; edge=&quot;1&quot; parent=&quot;1&quot; style=&quot;endArrow=classic;startArrow=classic;html=1;rounded=0;entryX=0;entryY=0.5;entryDx=0;entryDy=0;fillColor=#dae8fc;strokeColor=#6c8ebf;strokeWidth=3;&quot; target=&quot;Dh1xF50VbYc3bS5iLeoW-3&quot; value=&quot;&quot;&gt;&#10;          &lt;mxGeometry height=&quot;50&quot; relative=&quot;1&quot; width=&quot;50&quot; as=&quot;geometry&quot;&gt;&#10;            &lt;mxPoint x=&quot;150&quot; y=&quot;350&quot; as=&quot;sourcePoint&quot; /&gt;&#10;            &lt;mxPoint x=&quot;290&quot; y=&quot;359&quot; as=&quot;targetPoint&quot; /&gt;&#10;          &lt;/mxGeometry&gt;&#10;        &lt;/mxCell&gt;&#10;        &lt;mxCell id=&quot;Dh1xF50VbYc3bS5iLeoW-14&quot; edge=&quot;1&quot; parent=&quot;1&quot; source=&quot;Dh1xF50VbYc3bS5iLeoW-5&quot; style=&quot;endArrow=classic;startArrow=classic;html=1;rounded=0;entryX=0;entryY=0.5;entryDx=0;entryDy=0;fillColor=#dae8fc;strokeColor=#6c8ebf;strokeWidth=3;exitX=1;exitY=0.5;exitDx=0;exitDy=0;&quot; target=&quot;Dh1xF50VbYc3bS5iLeoW-4&quot; value=&quot;&quot;&gt;&#10;          &lt;mxGeometry height=&quot;50&quot; relative=&quot;1&quot; width=&quot;50&quot; as=&quot;geometry&quot;&gt;&#10;            &lt;mxPoint x=&quot;150&quot; y=&quot;480&quot; as=&quot;sourcePoint&quot; /&gt;&#10;            &lt;mxPoint x=&quot;290&quot; y=&quot;359&quot; as=&quot;targetPoint&quot; /&gt;&#10;          &lt;/mxGeometry&gt;&#10;        &lt;/mxCell&gt;&#10;        &lt;mxCell id=&quot;Dh1xF50VbYc3bS5iLeoW-15&quot; edge=&quot;1&quot; parent=&quot;1&quot; style=&quot;endArrow=classic;startArrow=classic;html=1;rounded=0;entryX=0;entryY=0.5;entryDx=0;entryDy=0;fillColor=#dae8fc;strokeColor=#6c8ebf;strokeWidth=3;&quot; target=&quot;Dh1xF50VbYc3bS5iLeoW-4&quot; value=&quot;&quot;&gt;&#10;          &lt;mxGeometry height=&quot;50&quot; relative=&quot;1&quot; width=&quot;50&quot; as=&quot;geometry&quot;&gt;&#10;            &lt;mxPoint x=&quot;150&quot; y=&quot;350&quot; as=&quot;sourcePoint&quot; /&gt;&#10;            &lt;mxPoint x=&quot;290&quot; y=&quot;359&quot; as=&quot;targetPoint&quot; /&gt;&#10;          &lt;/mxGeometry&gt;&#10;        &lt;/mxCell&gt;&#10;        &lt;mxCell id=&quot;Dh1xF50VbYc3bS5iLeoW-16&quot; parent=&quot;1&quot; style=&quot;shape=image;verticalLabelPosition=bottom;labelBackgroundColor=default;verticalAlign=top;aspect=fixed;imageAspect=0;editableCssRules=.*;image=data:image/svg+xml,PHN2ZyB4bWxucz0iaHR0cDovL3d3dy53My5vcmcvMjAwMC9zdmciIHhtbG5zOnhsaW5rPSJodHRwOi8vd3d3LnczLm9yZy8xOTk5L3hsaW5rIiBpZD0iTGFhZ18xIiB2aWV3Qm94PSI3IDMgNTAgNTgiIHdpZHRoPSI1MCIgaGVpZ2h0PSI1OCIgc3R5bGU9ImNvbG9yLXNjaGVtZTogbGlnaHQgZGFyazsiPjxkZWZzPjxzdHlsZT4uY2xzLTEgeyBmaWxsOiBub25lOyB9IC5jbHMtMiB7IGNsaXAtcGF0aDogdXJsKCIjY2xpcHBhdGgiKTsgfSAuY2xzLTMgeyBmaWxsOiByZ2IoMjEsIDY2LCAxMTUpOyB9IC5jbHMtNCB7IGNsaXAtcGF0aDogdXJsKCIjY2xpcHBhdGgtMSIpOyB9IDwvc3R5bGU+PGNsaXBQYXRoIGlkPSJjbGlwcGF0aCI+PHJlY3QgY2xhc3M9ImNscy0xIiB3aWR0aD0iNjQiIGhlaWdodD0iNjQiLz48L2NsaXBQYXRoPjxjbGlwUGF0aCBpZD0iY2xpcHBhdGgtMSI+PHJlY3QgY2xhc3M9ImNscy0xIiB3aWR0aD0iNjQiIGhlaWdodD0iNjQiLz48L2NsaXBQYXRoPjwvZGVmcz48ZyBjbGFzcz0iY2xzLTIiPjxnIGNsYXNzPSJjbHMtNCI+PHBhdGggY2xhc3M9ImNscy0zIiBkPSJNNDAsMy41YzAtLjI4LS4yMi0uNS0uNS0uNUgxNC41Yy0uMjgsMC0uNSwuMjItLjUsLjVWMzFINy41Yy0uMjgsMC0uNSwuMjItLjUsLjV2MjkuNUgyN1YxOWMwLS41NSwuNDUtMSwxLTFoMTJWMy41WiIvPjxwYXRoIGNsYXNzPSJjbHMtMyIgZD0iTTU2LjUsMjBIMjkuNWMtLjI4LDAtLjUsLjIyLS41LC41VjYxaDEydi02aDR2NmgxMlYyMC41YzAtLjI4LS4yMi0uNS0uNS0uNW0tMTguNSwzMWgtNHYtNGg0djRabTAtN2gtNHYtNGg0djRabTAtN2gtNHYtNGg0djRabTAtN2gtNHYtNGg0djRabTcsMjFoLTR2LTRoNHY0Wm0wLTdoLTR2LTRoNHY0Wm0wLTdoLTR2LTRoNHY0Wm0wLTdoLTR2LTRoNHY0Wm03LDIxaC00di00aDR2NFptMC03aC00di00aDR2NFptMC03aC00di00aDR2NFptMC03aC00di00aDR2NFoiLz48L2c+PC9nPjwvc3ZnPg==;imageBackground=default;&quot; value=&quot;&quot; vertex=&quot;1&quot;&gt;&#10;          &lt;mxGeometry height=&quot;84&quot; width=&quot;72.41&quot; x=&quot;280&quot; y=&quot;33&quot; as=&quot;geometry&quot; /&gt;&#10;        &lt;/mxCell&gt;&#10;        &lt;mxCell id=&quot;Dh1xF50VbYc3bS5iLeoW-17&quot; edge=&quot;1&quot; parent=&quot;1&quot; source=&quot;Dh1xF50VbYc3bS5iLeoW-6&quot; style=&quot;endArrow=classic;startArrow=classic;html=1;rounded=0;exitX=1;exitY=0.5;exitDx=0;exitDy=0;entryX=0;entryY=0.5;entryDx=0;entryDy=0;fillColor=#dae8fc;strokeColor=#6c8ebf;strokeWidth=3;&quot; target=&quot;Dh1xF50VbYc3bS5iLeoW-16&quot; value=&quot;&quot;&gt;&#10;          &lt;mxGeometry height=&quot;50&quot; relative=&quot;1&quot; width=&quot;50&quot; as=&quot;geometry&quot;&gt;&#10;            &lt;mxPoint x=&quot;153&quot; y=&quot;363&quot; as=&quot;sourcePoint&quot; /&gt;&#10;            &lt;mxPoint x=&quot;290&quot; y=&quot;363&quot; as=&quot;targetPoint&quot; /&gt;&#10;          &lt;/mxGeometry&gt;&#10;        &lt;/mxCell&gt;&#10;      &lt;/root&gt;&#10;    &lt;/mxGraphModel&gt;&#10;  &lt;/diagram&gt;&#10;&lt;/mxfile&gt;&#10;"><defs/><rect fill="#ffffff" width="100%" height="100%" x="0" y="0" style="fill: light-dark(#ffffff, var(--ge-dark-color, #121212));"/><g><g data-cell-id="0"><g data-cell-id="1"><g data-cell-id="Dh1xF50VbYc3bS5iLeoW-1"><g><g><svg xmlns="http://www.w3.org/2000/svg" xmlns:xlink="http://www.w3.org/1999/xlink" id="svg-image-RDppXC5ijYBwJ4U9iJGi" viewBox="9.010002136230469 5.200000762939453 45.999996185302734 49.79999923706055" width="82.8" height="90" x="0" y="278" style="font-family: initial;"><defs><style>#svg-image-RDppXC5ijYBwJ4U9iJGi .cls-1 { fill: none; }&#xa;#svg-image-RDppXC5ijYBwJ4U9iJGi .cls-2 { clip-path: url("#clippath"); }&#xa;#svg-image-RDppXC5ijYBwJ4U9iJGi .cls-3 { fill: rgb(21, 66, 115); }&#xa;#svg-image-RDppXC5ijYBwJ4U9iJGi .cls-4 { clip-path: url("#clippath-1"); }&#xa;</style><clipPath id="clippath"><rect class="cls-1" width="64" height="64"/></clipPath><clipPath id="clippath-1"><rect class="cls-1" width="64" height="64"/></clipPath></defs><g class="cls-2"><g class="cls-4"><path class="cls-3" d="M31.5,31.79c7.7,0,12.15-5.36,12.15-13.08,0-8.8-4.66-13.51-12.15-13.51-7.9,0-12.16,5.58-12.16,13.51,0,8.37,4.46,13.08,12.16,13.08"/><path class="cls-3" d="M49.15,39.3c-3.18-2.22-8.55-3.3-17.14-3.3s-13.96,1.08-17.14,3.3c-3.99,2.78-5.16,8.67-5.86,15.7H55.01c-.7-7.03-1.88-12.92-5.86-15.7"/></g></g></svg></g></g></g><g data-cell-id="Dh1xF50VbYc3bS5iLeoW-2"><g><g><svg xmlns="http://www.w3.org/2000/svg" xmlns:xlink="http://www.w3.org/1999/xlink" id="svg-image-u7ho6PAejELPMPZg7th5" viewBox="7 3 50 58" width="74.14" height="86" x="220" y="280" style="font-family: initial;"><defs><style>#svg-image-u7ho6PAejELPMPZg7th5 .cls-1 { fill: none; }&#xa;#svg-image-u7ho6PAejELPMPZg7th5 .cls-2 { clip-path: url("#clippath"); }&#xa;#svg-image-u7ho6PAejELPMPZg7th5 .cls-3 { fill: rgb(21, 66, 115); }&#xa;#svg-image-u7ho6PAejELPMPZg7th5 .cls-4 { clip-path: url("#clippath-1"); }&#xa;</style><clipPath id="clippath"><rect class="cls-1" width="64" height="64"/></clipPath><clipPath id="clippath-1"><rect class="cls-1" width="64" height="64"/></clipPath></defs><g class="cls-2"><g class="cls-4"><path class="cls-3" d="M40,3.5c0-.28-.22-.5-.5-.5H14.5c-.28,0-.5,.22-.5,.5V31H7.5c-.28,0-.5,.22-.5,.5v29.5H27V19c0-.55,.45-1,1-1h12V3.5Z"/><path class="cls-3" d="M56.5,20H29.5c-.28,0-.5,.22-.5,.5V61h12v-6h4v6h12V20.5c0-.28-.22-.5-.5-.5m-18.5,31h-4v-4h4v4Zm0-7h-4v-4h4v4Zm0-7h-4v-4h4v4Zm0-7h-4v-4h4v4Zm7,21h-4v-4h4v4Zm0-7h-4v-4h4v4Zm0-7h-4v-4h4v4Zm0-7h-4v-4h4v4Zm7,21h-4v-4h4v4Zm0-7h-4v-4h4v4Zm0-7h-4v-4h4v4Zm0-7h-4v-4h4v4Z"/></g></g></svg></g></g></g><g data-cell-id="Dh1xF50VbYc3bS5iLeoW-3"><g><rect x="220" y="148" width="70.69" height="82" fill="#ffffff" stroke="none" pointer-events="all" style="fill: light-dark(#ffffff, var(--ge-dark-color, #121212));"/><g><svg xmlns="http://www.w3.org/2000/svg" xmlns:xlink="http://www.w3.org/1999/xlink" id="svg-image-i6uzRDWX2KA3Cjtzxet8" viewBox="7 3 50 58" width="70.69" height="82" style="font-family: initial;" x="220" y="148"><defs><style>#svg-image-i6uzRDWX2KA3Cjtzxet8 .cls-1 { fill: none; }&#xa;#svg-image-i6uzRDWX2KA3Cjtzxet8 .cls-2 { clip-path: url("#clippath"); }&#xa;#svg-image-i6uzRDWX2KA3Cjtzxet8 .cls-3 { fill: rgb(21, 66, 115); }&#xa;#svg-image-i6uzRDWX2KA3Cjtzxet8 .cls-4 { clip-path: url("#clippath-1"); }&#xa;</style><clipPath id="clippath"><rect class="cls-1" width="64" height="64"/></clipPath><clipPath id="clippath-1"><rect class="cls-1" width="64" height="64"/></clipPath></defs><g class="cls-2"><g class="cls-4"><path class="cls-3" d="M40,3.5c0-.28-.22-.5-.5-.5H14.5c-.28,0-.5,.22-.5,.5V31H7.5c-.28,0-.5,.22-.5,.5v29.5H27V19c0-.55,.45-1,1-1h12V3.5Z"/><path class="cls-3" d="M56.5,20H29.5c-.28,0-.5,.22-.5,.5V61h12v-6h4v6h12V20.5c0-.28-.22-.5-.5-.5m-18.5,31h-4v-4h4v4Zm0-7h-4v-4h4v4Zm0-7h-4v-4h4v4Zm0-7h-4v-4h4v4Zm7,21h-4v-4h4v4Zm0-7h-4v-4h4v4Zm0-7h-4v-4h4v4Zm0-7h-4v-4h4v4Zm7,21h-4v-4h4v4Zm0-7h-4v-4h4v4Zm0-7h-4v-4h4v4Zm0-7h-4v-4h4v4Z"/></g></g></svg></g></g></g><g data-cell-id="Dh1xF50VbYc3bS5iLeoW-4"><g><g><svg xmlns="http://www.w3.org/2000/svg" xmlns:xlink="http://www.w3.org/1999/xlink" id="svg-image-zQTx71uGeluusSwblg55" viewBox="7 3 50 58" width="68.96" height="80" x="220" y="419" style="font-family: initial;"><defs><style>#svg-image-zQTx71uGeluusSwblg55 .cls-1 { fill: none; }&#xa;#svg-image-zQTx71uGeluusSwblg55 .cls-2 { clip-path: url("#clippath"); }&#xa;#svg-image-zQTx71uGeluusSwblg55 .cls-3 { fill: rgb(21, 66, 115); }&#xa;#svg-image-zQTx71uGeluusSwblg55 .cls-4 { clip-path: url("#clippath-1"); }&#xa;</style><clipPath id="clippath"><rect class="cls-1" width="64" height="64"/></clipPath><clipPath id="clippath-1"><rect class="cls-1" width="64" height="64"/></clipPath></defs><g class="cls-2"><g class="cls-4"><path class="cls-3" d="M40,3.5c0-.28-.22-.5-.5-.5H14.5c-.28,0-.5,.22-.5,.5V31H7.5c-.28,0-.5,.22-.5,.5v29.5H27V19c0-.55,.45-1,1-1h12V3.5Z"/><path class="cls-3" d="M56.5,20H29.5c-.28,0-.5,.22-.5,.5V61h12v-6h4v6h12V20.5c0-.28-.22-.5-.5-.5m-18.5,31h-4v-4h4v4Zm0-7h-4v-4h4v4Zm0-7h-4v-4h4v4Zm0-7h-4v-4h4v4Zm7,21h-4v-4h4v4Zm0-7h-4v-4h4v4Zm0-7h-4v-4h4v4Zm0-7h-4v-4h4v4Zm7,21h-4v-4h4v4Zm0-7h-4v-4h4v4Zm0-7h-4v-4h4v4Zm0-7h-4v-4h4v4Z"/></g></g></svg></g></g></g><g data-cell-id="Dh1xF50VbYc3bS5iLeoW-5"><g><g><svg xmlns="http://www.w3.org/2000/svg" xmlns:xlink="http://www.w3.org/1999/xlink" id="svg-image-kCmzY0cdA-yLH_psxZga" viewBox="9.010002136230469 5.200000762939453 45.999996185302734 49.79999923706055" width="82.8" height="90" x="0" y="414" style="font-family: initial;"><defs><style>#svg-image-kCmzY0cdA-yLH_psxZga .cls-1 { fill: none; }&#xa;#svg-image-kCmzY0cdA-yLH_psxZga .cls-2 { clip-path: url("#clippath"); }&#xa;#svg-image-kCmzY0cdA-yLH_psxZga .cls-3 { fill: rgb(21, 66, 115); }&#xa;#svg-image-kCmzY0cdA-yLH_psxZga .cls-4 { clip-path: url("#clippath-1"); }&#xa;</style><clipPath id="clippath"><rect class="cls-1" width="64" height="64"/></clipPath><clipPath id="clippath-1"><rect class="cls-1" width="64" height="64"/></clipPath></defs><g class="cls-2"><g class="cls-4"><path class="cls-3" d="M31.5,31.79c7.7,0,12.15-5.36,12.15-13.08,0-8.8-4.66-13.51-12.15-13.51-7.9,0-12.16,5.58-12.16,13.51,0,8.37,4.46,13.08,12.16,13.08"/><path class="cls-3" d="M49.15,39.3c-3.18-2.22-8.55-3.3-17.14-3.3s-13.96,1.08-17.14,3.3c-3.99,2.78-5.16,8.67-5.86,15.7H55.01c-.7-7.03-1.88-12.92-5.86-15.7"/></g></g></svg></g></g></g><g data-cell-id="Dh1xF50VbYc3bS5iLeoW-6"><g><rect x="0" y="0" width="82.8" height="90" fill="#ffffff" stroke="none" pointer-events="all" style="fill: light-dark(#ffffff, var(--ge-dark-color, #121212));"/><g><svg xmlns="http://www.w3.org/2000/svg" xmlns:xlink="http://www.w3.org/1999/xlink" id="svg-image-jb4nvPqASVGP7DNu4DwD" viewBox="9.010002136230469 5.200000762939453 45.999996185302734 49.79999923706055" width="82.8" height="90" style="font-family: initial;" x="0" y="0"><defs><style>#svg-image-jb4nvPqASVGP7DNu4DwD .cls-1 { fill: none; }&#xa;#svg-image-jb4nvPqASVGP7DNu4DwD .cls-2 { clip-path: url("#clippath"); }&#xa;#svg-image-jb4nvPqASVGP7DNu4DwD .cls-3 { fill: rgb(21, 66, 115); }&#xa;#svg-image-jb4nvPqASVGP7DNu4DwD .cls-4 { clip-path: url("#clippath-1"); }&#xa;</style><clipPath id="clippath"><rect class="cls-1" width="64" height="64"/></clipPath><clipPath id="clippath-1"><rect class="cls-1" width="64" height="64"/></clipPath></defs><g class="cls-2"><g class="cls-4"><path class="cls-3" d="M31.5,31.79c7.7,0,12.15-5.36,12.15-13.08,0-8.8-4.66-13.51-12.15-13.51-7.9,0-12.16,5.58-12.16,13.51,0,8.37,4.46,13.08,12.16,13.08"/><path class="cls-3" d="M49.15,39.3c-3.18-2.22-8.55-3.3-17.14-3.3s-13.96,1.08-17.14,3.3c-3.99,2.78-5.16,8.67-5.86,15.7H55.01c-.7-7.03-1.88-12.92-5.86-15.7"/></g></g></svg></g></g></g><g data-cell-id="Dh1xF50VbYc3bS5iLeoW-9"><g transform="translate(0.5,0.5)"><path d="M 92.9 323 L 209.9 323" fill="none" stroke="#6c8ebf" stroke-width="3" stroke-miterlimit="10" pointer-events="stroke" style="stroke: light-dark(rgb(108, 142, 191), rgb(92, 121, 163));"/><path d="M 86.15 323 L 95.15 318.5 L 92.9 323 L 95.15 327.5 Z" fill="#6c8ebf" stroke="#6c8ebf" stroke-width="3" stroke-miterlimit="10" pointer-events="all" style="fill: light-dark(rgb(108, 142, 191), rgb(92, 121, 163)); stroke: light-dark(rgb(108, 142, 191), rgb(92, 121, 163));"/><path d="M 216.65 323 L 207.65 327.5 L 209.9 323 L 207.65 318.5 Z" fill="#6c8ebf" stroke="#6c8ebf" stroke-width="3" stroke-miterlimit="10" pointer-events="all" style="fill: light-dark(rgb(108, 142, 191), rgb(92, 121, 163)); stroke: light-dark(rgb(108, 142, 191), rgb(92, 121, 163));"/></g></g><g data-cell-id="Dh1xF50VbYc3bS5iLeoW-11"><g transform="translate(0.5,0.5)"><path d="M 97.12 312.83 L 212.88 196.17" fill="none" stroke="#6c8ebf" stroke-width="3" stroke-miterlimit="10" pointer-events="stroke" style="stroke: light-dark(rgb(108, 142, 191), rgb(92, 121, 163));"/><path d="M 92.36 317.62 L 95.51 308.06 L 97.12 312.83 L 101.9 314.4 Z" fill="#6c8ebf" stroke="#6c8ebf" stroke-width="3" stroke-miterlimit="10" pointer-events="all" style="fill: light-dark(rgb(108, 142, 191), rgb(92, 121, 163)); stroke: light-dark(rgb(108, 142, 191), rgb(92, 121, 163));"/><path d="M 217.64 191.38 L 214.49 200.94 L 212.88 196.17 L 208.1 194.6 Z" fill="#6c8ebf" stroke="#6c8ebf" stroke-width="3" stroke-miterlimit="10" pointer-events="all" style="fill: light-dark(rgb(108, 142, 191), rgb(92, 121, 163)); stroke: light-dark(rgb(108, 142, 191), rgb(92, 121, 163));"/></g></g><g data-cell-id="Dh1xF50VbYc3bS5iLeoW-14"><g transform="translate(0.5,0.5)"><path d="M 92.9 459 L 209.9 459" fill="none" stroke="#6c8ebf" stroke-width="3" stroke-miterlimit="10" pointer-events="stroke" style="stroke: light-dark(rgb(108, 142, 191), rgb(92, 121, 163));"/><path d="M 86.15 459 L 95.15 454.5 L 92.9 459 L 95.15 463.5 Z" fill="#6c8ebf" stroke="#6c8ebf" stroke-width="3" stroke-miterlimit="10" pointer-events="all" style="fill: light-dark(rgb(108, 142, 191), rgb(92, 121, 163)); stroke: light-dark(rgb(108, 142, 191), rgb(92, 121, 163));"/><path d="M 216.65 459 L 207.65 463.5 L 209.9 459 L 207.65 454.5 Z" fill="#6c8ebf" stroke="#6c8ebf" stroke-width="3" stroke-miterlimit="10" pointer-events="all" style="fill: light-dark(rgb(108, 142, 191), rgb(92, 121, 163)); stroke: light-dark(rgb(108, 142, 191), rgb(92, 121, 163));"/></g></g><g data-cell-id="Dh1xF50VbYc3bS5iLeoW-15"><g transform="translate(0.5,0.5)"><path d="M 96.9 327.38 L 213.1 451.62" fill="none" stroke="#6c8ebf" stroke-width="3" stroke-miterlimit="10" pointer-events="stroke" style="stroke: light-dark(rgb(108, 142, 191), rgb(92, 121, 163));"/><path d="M 92.29 322.45 L 101.73 325.95 L 96.9 327.38 L 95.15 332.1 Z" fill="#6c8ebf" stroke="#6c8ebf" stroke-width="3" stroke-miterlimit="10" pointer-events="all" style="fill: light-dark(rgb(108, 142, 191), rgb(92, 121, 163)); stroke: light-dark(rgb(108, 142, 191), rgb(92, 121, 163));"/><path d="M 217.71 456.55 L 208.27 453.05 L 213.1 451.62 L 214.85 446.9 Z" fill="#6c8ebf" stroke="#6c8ebf" stroke-width="3" stroke-miterlimit="10" pointer-events="all" style="fill: light-dark(rgb(108, 142, 191), rgb(92, 121, 163)); stroke: light-dark(rgb(108, 142, 191), rgb(92, 121, 163));"/></g></g><g data-cell-id="Dh1xF50VbYc3bS5iLeoW-16"><g><rect x="220" y="3" width="72.41" height="84" fill="#ffffff" stroke="none" pointer-events="all" style="fill: light-dark(#ffffff, var(--ge-dark-color, #121212));"/><g><svg xmlns="http://www.w3.org/2000/svg" xmlns:xlink="http://www.w3.org/1999/xlink" id="svg-image-tLNYzT3SwqvACOA6yQso" viewBox="7 3 50 58" width="72.41" height="84" style="font-family: initial;" x="220" y="3"><defs><style>#svg-image-tLNYzT3SwqvACOA6yQso .cls-1 { fill: none; }&#xa;#svg-image-tLNYzT3SwqvACOA6yQso .cls-2 { clip-path: url("#clippath"); }&#xa;#svg-image-tLNYzT3SwqvACOA6yQso .cls-3 { fill: rgb(21, 66, 115); }&#xa;#svg-image-tLNYzT3SwqvACOA6yQso .cls-4 { clip-path: url("#clippath-1"); }&#xa;</style><clipPath id="clippath"><rect class="cls-1" width="64" height="64"/></clipPath><clipPath id="clippath-1"><rect class="cls-1" width="64" height="64"/></clipPath></defs><g class="cls-2"><g class="cls-4"><path class="cls-3" d="M40,3.5c0-.28-.22-.5-.5-.5H14.5c-.28,0-.5,.22-.5,.5V31H7.5c-.28,0-.5,.22-.5,.5v29.5H27V19c0-.55,.45-1,1-1h12V3.5Z"/><path class="cls-3" d="M56.5,20H29.5c-.28,0-.5,.22-.5,.5V61h12v-6h4v6h12V20.5c0-.28-.22-.5-.5-.5m-18.5,31h-4v-4h4v4Zm0-7h-4v-4h4v4Zm0-7h-4v-4h4v4Zm0-7h-4v-4h4v4Zm7,21h-4v-4h4v4Zm0-7h-4v-4h4v4Zm0-7h-4v-4h4v4Zm0-7h-4v-4h4v4Zm7,21h-4v-4h4v4Zm0-7h-4v-4h4v4Zm0-7h-4v-4h4v4Zm0-7h-4v-4h4v4Z"/></g></g></svg></g></g></g><g data-cell-id="Dh1xF50VbYc3bS5iLeoW-17"><g transform="translate(0.5,0.5)"><path d="M 92.9 45 L 209.9 45" fill="none" stroke="#6c8ebf" stroke-width="3" stroke-miterlimit="10" pointer-events="stroke" style="stroke: light-dark(rgb(108, 142, 191), rgb(92, 121, 163));"/><path d="M 86.15 45 L 95.15 40.5 L 92.9 45 L 95.15 49.5 Z" fill="#6c8ebf" stroke="#6c8ebf" stroke-width="3" stroke-miterlimit="10" pointer-events="all" style="fill: light-dark(rgb(108, 142, 191), rgb(92, 121, 163)); stroke: light-dark(rgb(108, 142, 191), rgb(92, 121, 163));"/><path d="M 216.65 45 L 207.65 49.5 L 209.9 45 L 207.65 40.5 Z" fill="#6c8ebf" stroke="#6c8ebf" stroke-width="3" stroke-miterlimit="10" pointer-events="all" style="fill: light-dark(rgb(108, 142, 191), rgb(92, 121, 163)); stroke: light-dark(rgb(108, 142, 191), rgb(92, 121, 163));"/></g></g></g></g></g></svg>