<svg width="64" height="64" viewBox="0 0 64 64" fill="none" xmlns="http://www.w3.org/2000/svg">
<path d="M28.2959 4.83118C32.5644 3.887 35.2413 5.0739 37.542 6.17688C38.8799 5.9159 40.0254 6.02339 41.0029 6.50891C42.0515 7.02975 42.7631 7.91439 43.3008 8.88C43.7802 9.74088 44.0213 10.7543 44.1514 11.7501C44.2823 12.7525 44.3084 13.8085 44.3154 14.7843C44.3246 16.0954 44.321 17.4203 44.2471 18.4347C44.3325 18.473 44.4179 18.5156 44.501 18.5675C44.9556 18.8516 45.2537 19.2806 45.4443 19.7648C45.8011 20.6711 45.8664 21.9947 45.7676 23.7365V23.7374C45.6731 25.3991 45.2974 26.529 44.7539 27.3273C44.361 27.9042 43.9112 28.2549 43.5488 28.4884C42.8843 31.4091 41.6531 34.2284 39.5947 36.4728C39.687 36.9391 39.796 37.4157 39.9238 37.8927C41.4987 38.4546 43.8801 39.3432 46.1777 40.3624C47.4533 40.9283 48.7176 41.5404 49.8105 42.1642C50.8861 42.7781 51.8644 43.4417 52.5137 44.1261C53.3522 45.0097 54.0173 46.4046 54.5498 47.8624C55.0938 49.3518 55.5446 51.037 55.9033 52.6075C56.2629 54.1819 56.5344 55.6618 56.7158 56.7462C56.8066 57.2888 56.876 57.7337 56.9219 58.0441C56.9448 58.1993 56.962 58.3211 56.9736 58.4044C56.9795 58.446 56.9833 58.4782 56.9863 58.5001C56.9878 58.5111 56.9894 58.5197 56.9902 58.5255C56.9906 58.5284 56.991 58.5308 56.9912 58.5323V58.5343V58.5353L57.1416 59.6671H6.8584L7.00879 58.5353L8 58.6671L7.00879 58.5343V58.5323C7.009 58.5308 7.00938 58.5284 7.00977 58.5255C7.01055 58.5197 7.01218 58.5111 7.01367 58.5001C7.01666 58.4782 7.02055 58.446 7.02637 58.4044C7.03803 58.3211 7.05516 58.1993 7.07812 58.0441C7.12404 57.7337 7.19339 57.2888 7.28418 56.7462C7.46565 55.6618 7.73707 54.1819 8.09668 52.6075C8.45543 51.037 8.90623 49.3518 9.4502 47.8624C9.98265 46.4046 10.6469 45.0097 11.4854 44.1261C12.1358 43.4403 13.1169 42.7754 14.1953 42.1603C15.291 41.5353 16.5587 40.9223 17.8369 40.3556C20.1285 39.3397 22.5015 38.4545 24.0732 37.8937C24.1857 37.418 24.2835 36.9424 24.3691 36.4767C22.3086 34.2276 21.1095 31.4036 20.4492 28.4884C20.0867 28.257 19.6313 27.9084 19.2324 27.3361C18.6757 26.5373 18.2891 25.4047 18.1943 23.7374V23.7365C18.0955 21.9947 18.1598 20.6712 18.5166 19.7648C18.7073 19.2806 19.0053 18.8516 19.46 18.5675C19.5456 18.514 19.6335 18.4698 19.7217 18.4308C19.7021 18.0893 19.6924 17.7212 19.6875 17.3448C19.6773 16.5581 19.6865 15.6188 19.6826 14.712C19.6784 13.7315 19.6989 12.6705 19.8408 11.67C19.9818 10.6763 20.2526 9.66262 20.8037 8.81946C21.5849 7.62474 23.4908 5.894 28.2959 4.83118Z" fill="#0069A8" stroke="#3B3B3B" stroke-width="2"/>
</svg>
